Coordinates
nRows=119
nColumns=2
inDegrees=yes
endheader
time	ankle_angle_r	
3.14919	 18.859558	
3.22077	 18.821203	
3.29234	 18.870548	
3.36391	 18.895803	
3.43548	 18.853606	
3.50706	 18.861243	
3.57863	 18.967109	
3.6502	 19.013300	
3.72177	 18.966222	
3.79335	 18.988737	
3.86492	 19.060995	
3.93649	 19.071981	
4.00806	 19.029323	
4.07964	 19.020846	
4.15121	 19.071089	
4.22278	 19.089162	
4.29435	 19.058666	
4.36593	 19.049532	
4.4375	 19.076129	
4.50907	 19.083625	
4.58065	 19.046367	
4.65222	 19.025985	
4.72379	 19.060714	
4.79536	 19.070976	
4.86694	 19.009349	
4.93851	 18.998053	
5.01008	 19.076749	
5.08165	 19.102040	
5.15323	 19.053799	
5.2248	 19.030556	
5.29637	 19.051283	
5.36794	 19.070042	
5.43952	 19.054856	
5.51109	 19.044058	
5.58266	 19.091123	
5.65423	 19.103269	
5.72581	 18.988967	
5.79738	 18.958466	
5.86895	 19.053264	
5.94052	 19.002700	
6.0121	 18.889907	
6.08367	 18.874525	
6.15524	 18.864972	
6.22681	 18.827078	
6.29839	 18.812149	
6.36996	 18.860216	
6.44153	 18.900981	
6.5131	 18.921205	
6.58468	 18.966160	
6.65625	 19.003763	
6.72782	 19.052621	
6.7994	 19.062527	
6.87097	 19.003616	
6.94254	 19.000209	
7.01411	 19.063841	
7.08569	 19.027946	
7.15726	 18.917282	
7.22883	 18.915522	
7.3004	 18.913108	
7.37198	 18.852191	
7.44355	 18.849688	
7.51512	 18.860621	
7.58669	 18.867450	
7.65827	 18.852636	
7.72984	 18.813428	
7.80141	 18.827762	
7.87298	 18.858657	
7.94456	 18.836223	
8.01613	 18.789109	
8.0877	 18.803571	
8.15927	 18.880303	
8.23085	 18.899857	
8.30242	 18.839172	
8.37399	 18.862708	
8.44556	 18.985037	
8.51714	 18.988735	
8.58871	 18.897863	
8.66028	 18.909194	
8.73185	 18.949067	
8.80343	 18.868661	
8.875	 18.788172	
8.94657	 18.820636	
9.01815	 18.852648	
9.08972	 18.835638	
9.16129	 18.814417	
9.23286	 18.816341	
9.30444	 18.838633	
9.37601	 18.819333	
9.44758	 18.790903	
9.51915	 18.819775	
9.59073	 18.868421	
9.6623	 18.877869	
9.73387	 18.833600	
9.80544	 18.870574	
9.87702	 19.021587	
9.94859	 19.032322	
10.0202	 18.916147	
10.0917	 18.924487	
10.1633	 18.951759	
10.2349	 18.854646	
10.3065	 18.795534	
10.378	 18.822475	
10.4496	 18.828662	
10.5212	 18.820151	
10.5927	 18.817425	
10.6643	 18.820024	
10.7359	 18.840751	
10.8075	 18.842203	
10.879	 18.799941	
10.9506	 18.800225	
11.0222	 18.853324	
11.0937	 18.828988	
11.1653	 18.805801	
11.2369	 18.867812	
11.3085	 18.897494	
11.38	 18.938419	
11.4516	 18.992063	
11.5232	 18.994844	
11.5948	 19.056200	
